PathFileType	3	(X/Y/Z)	D:\Vicon Database\Healthy Subjects\S0040\Jan. 30, 2020\Static Calibration.trc
DataRate	CameraRate	NumFrames	NumMarkers	Units	OrigDataRate	OrigDataStartFrame	OrigNumFrames
100.0	100.0	4	69	mm	100.0	1	300	
Frame#	Time	sternum_cluster1			sternum_cluster2			sternum_cluster3			left_asis			right_asis			left_psis			right_psis			sacrum_cluster1			sacrum_cluster2			sacrum_cluster3			left_lat_femoral_epicondyle			left_med_femoral_epicondyle			left_anterior_thigh15			left_anterior_thigh25			left_anterior_thigh50			left_lateral_thigh25			left_lateral_thigh50			left_trochanter			left_thigh_cluster1			left_thigh_cluster2			left_thigh_cluster3			left_lateral_tibial_condyle			left_medial_tibial_condyle			left_fibular_head			left_tibial_tuberosity			left_anterior_shank30			left_lateral_malleolus			left_medial_malleolus			left_shank_cluster1			left_shank_cluster2			left_shank_cluster3			left_heel			left_metatarsal2			left_metatarsal5			left_metatarsal1			left_toe_tip			left_foot_cluster1			left_foot_cluster2			left_foot_cluster3			right_lat_femoral_epicondyle			right_med_femoral_epicondyle			right_anterior_thigh15			right_anterior_thigh25			right_anterior_thigh50			right_lateral_thigh25			right_lateral_thigh50			right_trochanter			right_thigh_cluster1			right_thigh_cluster2			right_thigh_cluster3			right_lateral_tibial_condyle			right_medial_tibial_condyle			right_fibular_head			right_tibial_tuberosity			right_lateral_distal_shank			right_anterior_shank30			right_lateral_malleolus			right_medial_malleolus			right_shank_cluster1			right_shank_cluster2			right_shank_cluster3			right_heel			right_metatarsal2			right_metatarsal5			right_metatarsal1			right_toe_tip			right_foot_cluster1			right_foot_cluster2			right_foot_cluster3			
		X1	Y1	Z1	X2	Y2	Z2	X3	Y3	Z3	X4	Y4	Z4	X5	Y5	Z5	X6	Y6	Z6	X7	Y7	Z7	X8	Y8	Z8	X9	Y9	Z9	X10	Y10	Z10	X11	Y11	Z11	X12	Y12	Z12	X13	Y13	Z13	X14	Y14	Z14	X15	Y15	Z15	X16	Y16	Z16	X17	Y17	Z17	X18	Y18	Z18	X19	Y19	Z19	X20	Y20	Z20	X21	Y21	Z21	X22	Y22	Z22	X23	Y23	Z23	X24	Y24	Z24	X25	Y25	Z25	X26	Y26	Z26	X27	Y27	Z27	X28	Y28	Z28	X29	Y29	Z29	X30	Y30	Z30	X31	Y31	Z31	X32	Y32	Z32	X33	Y33	Z33	X34	Y34	Z34	X35	Y35	Z35	X36	Y36	Z36	X37	Y37	Z37	X38	Y38	Z38	X39	Y39	Z39	X40	Y40	Z40	X41	Y41	Z41	X42	Y42	Z42	X43	Y43	Z43	X44	Y44	Z44	X45	Y45	Z45	X46	Y46	Z46	X47	Y47	Z47	X48	Y48	Z48	X49	Y49	Z49	X50	Y50	Z50	X51	Y51	Z51	X52	Y52	Z52	X53	Y53	Z53	X54	Y54	Z54	X55	Y55	Z55	X56	Y56	Z56	X57	Y57	Z57	X58	Y58	Z58	X59	Y59	Z59	X60	Y60	Z60	X61	Y61	Z61	X62	Y62	Z62	X63	Y63	Z63	X64	Y64	Z64	X65	Y65	Z65	X66	Y66	Z66	X67	Y67	Z67	X68	Y68	Z68	X69	Y69	Z69	
1	0	774.28943	1473.5605	-226.49475	760.78955	1446.3057	-218.979	763.89868	1449.6237	-256.79974	749.60156	1077.2484	-119.93191	756.24213	1085.7292	-367.79187	916.27301	1090.8229	-165.29651	923.03656	1097.2833	-282.33136	932.83673	1144.243	-226.99486	938.12201	1119.2188	-239.6873	939.13062	1112.0529	-200.80731	872.35181	553.10419	-78.88623	859.95648	541.83917	-213.49086	765.23157	613.3905	-136.61584	732.50482	698.401	-127.14285	717.17548	839.12445	-112.80731	844.45099	706.52338	-61.577461	814.58899	849.62823	-41.219311	813.87219	971.27307	-54.818466	819.79993	807.87622	-36.695724	826.69128	778.88184	-37.413403	788.99243	783.80316	-36.956539	878.56818	500.39893	-75.898361	872.97736	486.62717	-198.83611	879.35388	472.23041	-70.984291	821.96478	461.56622	-123.86227	820.95068	216.29922	-122.58136	858.75067	98.487625	-94.754608	841.57312	108.32332	-172.37086	815.77075	413.03302	-147.70226	809.45709	386.24512	-137.88187	821.37433	383.88593	-174.61893	926.66162	61.638466	-133.70552	708.75549	67.974136	-116.42573	735.17047	56.70369	-77.603828	713.49579	59.86964	-159.88998	657.29407	59.151241	-111.0791	771.89185	116.64766	-115.42883	747.62927	102.30198	-103.63879	741.80786	107.07108	-141.3801	851.00677	538.89349	-383.97226	844.42603	539.47351	-250.35686	758.185	614.59296	-326.52515	728.97974	696.34753	-323.59433	714.83868	829.18097	-335.86047	828.01776	698.41998	-408.58084	812.04529	844.02917	-435.03265	814.72693	973.82312	-424.95352	825.24713	793.34906	-439.4473	815.9494	766.24072	-435.57489	854.41577	767.6123	-432.3096	861.4635	499.63248	-383.79962	847.87646	484.66162	-264.87097	869.33905	473.14548	-388.10748	812.96887	460.1517	-344.66565	873.79944	203.37723	-385.91663	827.26288	217.0968	-341.33118	869.58319	98.427521	-374.16647	855.43665	107.22887	-294.3418	821.07025	397.87601	-291.24548	825.18311	369.42374	-285.04553	802.922	369.27036	-314.7532	940.4657	62.220039	-340.36481	721.55908	68.609657	-341.92023	755.97205	55.513371	-392.06662	731.31335	51.350685	-300.53134	670.79773	56.011631	-351.59204	779.15588	115.54709	-337.19666	754.6355	101.71015	-329.51624	755.50293	106.80191	-366.70865
2	0.01	774.33783	1473.5458	-226.52005	760.8219	1446.3121	-218.99849	763.91736	1449.6301	-256.79099	749.5896	1077.2522	-119.97623	756.3299	1085.7037	-367.84619	916.24634	1090.8361	-165.26688	922.99414	1097.2451	-282.35925	932.85162	1144.2244	-226.94235	938.16241	1119.3174	-239.64792	939.12146	1112.0686	-200.77068	872.50342	553.14917	-79.083549	859.96521	541.83685	-213.51823	765.159	613.38123	-136.65907	732.43921	698.42365	-127.19463	717.08282	839.15155	-112.82622	844.38141	706.5307	-61.5975	814.50519	849.63806	-41.248726	813.77448	971.31073	-54.83411	819.70563	807.89331	-36.727631	826.60138	778.88654	-37.448772	788.83051	783.86572	-36.984661	878.49841	500.41031	-75.914574	872.92676	486.66974	-198.87514	879.27527	472.23563	-71.011642	821.90851	461.58008	-123.86712	820.9176	216.31184	-122.59812	858.74835	98.501396	-94.758598	841.55194	108.36127	-172.37994	815.80505	412.95798	-147.75061	809.41071	386.22275	-137.90007	821.35309	383.87454	-174.61665	926.61951	61.623554	-133.73239	708.75165	67.998825	-116.43746	735.22913	56.637604	-77.671593	713.49207	59.861065	-159.90198	657.26483	59.156731	-111.08878	771.86578	116.65335	-115.42907	747.61212	102.30847	-103.64422	741.80682	107.05022	-141.40538	849.79266	538.82965	-384.62143	844.34662	539.46973	-250.35698	758.15198	614.58325	-326.57358	728.96411	696.33008	-323.65067	714.82416	829.19012	-335.90939	828.07581	698.39349	-408.55499	812.07483	844.03143	-435.05231	814.73834	973.85345	-424.95892	825.30676	793.39368	-439.47601	815.98914	766.26538	-435.64267	854.45544	767.62292	-432.21881	861.45093	499.64139	-383.8013	847.83777	484.6456	-264.90359	869.08295	473.07529	-387.96057	812.94696	460.1402	-344.68481	873.77948	203.39867	-385.94467	827.2403	217.09352	-341.33011	869.61609	98.430901	-374.15915	855.43695	107.21925	-294.31522	821.00946	397.85022	-291.26526	825.19818	369.40497	-285.06674	802.88721	369.27054	-314.76523	940.4632	62.215363	-340.38986	721.54803	68.624893	-341.94424	755.96387	55.5201	-392.08823	731.35559	51.331783	-300.5914	670.79431	55.996262	-351.61942	779.12506	115.53809	-337.20221	754.6095	101.72093	-329.50687	755.48517	106.80699	-366.7229
3	0.02	774.37067	1473.55	-226.52249	760.85156	1446.3093	-219.00044	763.95123	1449.6315	-256.81039	749.56152	1077.2599	-119.99995	756.33118	1085.7463	-367.85788	916.24512	1090.8887	-165.19998	923.06097	1097.3527	-282.27316	932.86407	1144.2439	-226.8544	938.1347	1119.2791	-239.62898	939.10162	1112.0631	-200.74937	872.30505	553.23346	-79.038788	859.85681	541.862	-213.53215	765.09186	613.39856	-136.68059	732.38501	698.42908	-127.24583	717.05219	839.15656	-112.86646	844.27795	706.5365	-61.573997	814.41345	849.6554	-41.2519	813.72498	971.28406	-54.832775	819.68854	807.81366	-36.766102	826.52521	778.89447	-37.463467	788.7713	783.84729	-37.011269	878.41589	500.41074	-75.905502	872.87933	486.69855	-198.85374	879.20081	472.24713	-71.000473	821.85657	461.56656	-123.8933	820.88721	216.31308	-122.62617	858.70697	98.546234	-94.738853	841.56335	108.33311	-172.36726	815.73615	412.97504	-147.73628	809.3396	386.23743	-137.90233	821.26697	383.8981	-174.62985	926.61621	61.744617	-133.68591	708.70972	68.01403	-116.43424	735.14191	56.722878	-77.632103	713.44202	59.901375	-159.89885	657.2655	59.153984	-111.0955	771.86151	116.64362	-115.44278	747.59454	102.30221	-103.64711	741.77148	107.09966	-141.39992	849.5368	538.82562	-384.75858	844.28772	539.47803	-250.36842	758.1051	614.60278	-326.60251	728.94843	696.35071	-323.70486	714.82336	829.21375	-335.97092	828.03986	698.40533	-408.58209	812.08423	844.0553	-435.05878	814.78046	973.88147	-424.95969	825.26471	793.41516	-439.46664	815.93909	766.30005	-435.66638	854.5025	767.58868	-432.30383	861.35388	499.68484	-383.8045	847.79736	484.6528	-264.90128	869.24506	473.16165	-388.14014	812.85956	460.17889	-344.66946	873.71558	203.4402	-385.93982	827.1886	217.11317	-341.32791	869.55847	98.465668	-374.15414	855.41589	107.24492	-294.31543	820.97723	397.88141	-291.25565	825.16821	369.39029	-285.0596	802.84198	369.28033	-314.77402	940.41949	62.335796	-340.34061	721.51508	68.649864	-341.9252	755.92255	55.54977	-392.06763	731.29431	51.370407	-300.55112	670.77838	56.012177	-351.60684	779.15356	115.52892	-337.26077	754.55194	101.75639	-329.51477	755.43152	106.8403	-366.70374
4	0.03	774.38983	1473.5494	-226.51669	760.89923	1446.2974	-218.998	763.99188	1449.6207	-256.81061	749.54303	1077.2671	-120.01676	756.35791	1085.7622	-367.85733	916.2478	1090.8326	-165.218	923.09534	1097.3333	-282.26871	932.85278	1144.2789	-226.89278	938.13892	1119.2985	-239.59801	939.09961	1112.0835	-200.68694	872.07916	553.18323	-78.888069	859.85309	541.87799	-213.51118	765.05426	613.41461	-136.7244	732.34131	698.44305	-127.28037	717.00439	839.17255	-112.89687	844.22137	706.53534	-61.598667	814.36682	849.638	-41.242142	813.6767	971.28717	-54.837303	819.60687	807.82629	-36.781456	826.44403	778.88885	-37.448219	788.65833	783.89325	-37.009571	878.36481	500.3999	-75.893059	872.98944	486.67065	-198.75072	879.16333	472.24564	-70.986557	821.7934	461.6199	-123.9735	820.87683	216.30382	-122.60848	858.69672	98.561188	-94.732376	841.55304	108.33153	-172.38666	815.93585	412.87415	-147.77151	809.3183	386.22247	-137.90689	821.28894	383.86493	-174.632	926.61938	61.75835	-133.69066	708.70789	68.008499	-116.41614	735.1709	56.688801	-77.63826	713.45721	59.888851	-159.88887	657.24884	59.194504	-111.06377	771.87524	116.64835	-115.438	747.62408	102.29857	-103.64095	741.80579	107.07444	-141.3882	850.61621	539.0174	-384.11752	844.24274	539.47424	-250.37047	758.0769	614.63446	-326.61707	728.94208	696.35522	-323.74945	714.86053	829.23553	-336.02747	828.03217	698.46222	-408.57272	812.13531	844.07715	-435.04077	814.82678	973.89508	-424.97339	825.36896	793.42841	-439.47696	815.96802	766.2951	-435.65994	854.53839	767.57635	-432.28406	861.33997	499.68808	-383.80432	847.75488	484.6521	-264.90744	868.99719	473.10321	-387.96741	812.85242	460.18536	-344.67453	873.72974	203.44124	-385.92252	827.13007	217.14107	-341.29984	869.50391	98.470634	-374.16818	855.43042	107.23956	-294.31052	820.97308	397.85507	-291.25565	825.11176	369.40494	-285.06122	802.83508	369.26489	-314.7836	940.44153	62.319691	-340.32541	721.52325	68.643372	-341.92068	755.91656	55.541847	-392.04544	731.30255	51.372955	-300.54395	670.7796	56.0191	-351.59982	779.10785	115.54105	-337.18518	754.54956	101.7735	-329.4855	755.4314	106.83467	-366.68414
